<svg xmlns="http://www.w3.org/2000/svg" viewBox="0 0 218.22 218.22"><defs><style>.cls-1{fill:#1d1d1b;}</style></defs><title>Asset 9</title><g id="Layer_2" data-name="Layer 2"><g id="Layer_1-2" data-name="Layer 1"><path class="cls-1" d="M95.91,100.23c.61,1.75,1.14,3.53,1.84,5.24a18.73,18.73,0,0,0,5,7.21,8.49,8.49,0,0,0,3.93,2V98.32a48.21,48.21,0,0,0-10.83,1.41A5.07,5.07,0,0,0,95.91,100.23Z"/><path class="cls-1" d="M101.57,62.85A22.46,22.46,0,0,0,97.28,70c-.29.73-.54,1.47-.83,2.25a49.61,49.61,0,0,0,10.21,1.27V59.74c-.17,0-.31,0-.44.09A9.85,9.85,0,0,0,101.57,62.85Z"/><path class="cls-1" d="M121.89,87.25H109.56v8.26A53.27,53.27,0,0,1,121,97.1,49.66,49.66,0,0,0,121.89,87.25Z"/><path class="cls-1" d="M128.64,68.71a27,27,0,0,0-12-7.74,30.56,30.56,0,0,1,5.72,10.49A29.38,29.38,0,0,0,128.64,68.71Z"/><path class="cls-1" d="M91.74,92.5c-.17-1.75-.22-3.5-.32-5.25h-11a27.56,27.56,0,0,0,4,14.26,34.47,34.47,0,0,1,8-3.73C92.2,96,91.91,94.24,91.74,92.5Z"/><path class="cls-1" d="M106.65,76.55l-11-1.37a47.2,47.2,0,0,0-1.29,9.23h12.28Z"/><path class="cls-1" d="M96.23,66c1-1.76,2.15-3.39,3.22-5a27.79,27.79,0,0,0-12.14,8l6.35,2.68C94.55,69.67,95.27,67.77,96.23,66Z"/><path class="cls-1" d="M92.87,74.36l-7.33-3.13A27.19,27.19,0,0,0,80.6,84.41H91.38C91.89,81,92.38,77.63,92.87,74.36Z"/><path class="cls-1" d="M95.16,96.92c2-.34,3.85-.73,5.74-1s3.81-.34,5.75-.5V87.25H94.3A50.2,50.2,0,0,0,95.16,96.92Z"/><path class="cls-1" d="M86.06,103.91a27.25,27.25,0,0,0,13.53,9.55,32.5,32.5,0,0,1-6.46-13A25.24,25.24,0,0,0,86.06,103.91Z"/><path class="cls-1" d="M124.81,84.39H135.6a27.49,27.49,0,0,0-5.06-13.33l-7.23,3.17Q124.06,79.27,124.81,84.39Z"/><path class="cls-1" d="M123.84,98a32.69,32.69,0,0,1,7.8,3.76,27.46,27.46,0,0,0,4.1-14.47H124.89C124.54,90.79,124.2,94.31,123.84,98Z"/><path class="cls-1" d="M108.48,53.44A33.76,33.76,0,1,0,142.24,87.2,33.8,33.8,0,0,0,108.48,53.44Zm27.16,46.72a30,30,0,0,1-22.19,17c-1,.2-2.06.31-3.09.47h-4.52c-.93-.13-1.87-.24-2.8-.4A30.48,30.48,0,0,1,78.15,92.62c-.19-1.05-.32-2.1-.48-3.15V85a.78.78,0,0,0,.09-.21c.18-1.27.28-2.56.55-3.81a30.45,30.45,0,0,1,60.19,4.49A29.28,29.28,0,0,1,135.64,100.16Z"/><path class="cls-1" d="M120.38,99.84a46.36,46.36,0,0,0-10.85-1.5V114.7a8.77,8.77,0,0,0,4-2,17.63,17.63,0,0,0,3.94-5.09A33.08,33.08,0,0,0,120.38,99.84Z"/><path class="cls-1" d="M119.59,71.87a27.49,27.49,0,0,0-3.45-7.13A12.25,12.25,0,0,0,111,60.2c-.46-.2-.94-.34-1.47-.52V73.56a48.91,48.91,0,0,0,10.11-1.36A2,2,0,0,0,119.59,71.87Z"/><path class="cls-1" d="M116.6,113.47a27.24,27.24,0,0,0,13.4-9.39,24.31,24.31,0,0,0-7-3.42A32.26,32.26,0,0,1,116.6,113.47Z"/><path class="cls-1" d="M120.58,75.31c-.09-.4-.3-.36-.61-.31-2.49.4-5,.8-7.48,1.16-1,.14-1.95.15-2.95.22v8h12.29A50.63,50.63,0,0,0,120.58,75.31Z"/><path class="cls-1" d="M0,0V218.22H218.22V0ZM167.89,113.26c-6,14.46-14.31,27.61-23.46,40.26a403.53,403.53,0,0,1-35,41.7,14.65,14.65,0,0,0-1,1.32h-.69c-2.43-2.7-4.85-5.41-7.3-8.09-15.43-16.88-29.7-34.67-41.5-54.33-6.39-10.63-12.08-21.65-14.85-33.83-5-22.09.84-41.48,15.81-58.1,10.72-11.9,24.37-18.64,40.24-20.63,33.73-4.25,65.41,18.56,72.38,51.77C175.48,87.23,173.27,100.39,167.89,113.26Z"/></g></g></svg>