<svg xmlns="http://www.w3.org/2000/svg" viewBox="0 0 218.22 218.22"><defs><style>.cls-1{fill:#1d1d1b;}</style></defs><title>Asset 7</title><g id="Layer_2" data-name="Layer 2"><g id="Layer_1-2" data-name="Layer 1"><path class="cls-1" d="M0,0V218.22H218.22V0ZM179.83,140.82H133.7c.68,1.89,1.31,3.83,1.86,5.83,1.44,5.18,1.93,10.66,2.53,16,.36,3.25,0,3.42-3.28,3.42H32.47c-3,0-3.35-.4-3.17-3.06.76-11.23,3.3-22,8.88-31.85,6.43-11.38,15.21-20.25,27.39-25.46a20,20,0,0,0,1.76-1c-22.7-14-20.59-39.94-9.4-52.48a34.17,34.17,0,0,1,59.43,15.77,33,33,0,0,1-2.68,21c-3.06,6.64-8,11.61-14.47,15.51a9.4,9.4,0,0,0,1.27.88,57.78,57.78,0,0,1,17.57,11.72,35.79,35.79,0,0,1,16.63-14.87c.37-.16.71-.39,1.12-.62-14.47-9-13.12-25.46-6-33.46A21.78,21.78,0,0,1,168.7,78.3,21,21,0,0,1,167,91.7a22.62,22.62,0,0,1-9.23,9.89,5,5,0,0,0,.81.56c11.66,5.09,18.42,14.31,21.73,26.26a64.55,64.55,0,0,1,1.61,10.22C182.15,140.71,181.9,140.82,179.83,140.82Z"/></g></g></svg>