<svg xmlns="http://www.w3.org/2000/svg" viewBox="0 0 218.22 218.22"><defs><style>.cls-1{fill:#1d1d1b;}</style></defs><title>Asset 5</title><g id="Layer_2" data-name="Layer 2"><g id="Layer_1-2" data-name="Layer 1"><path class="cls-1" d="M175.89,128.64h-3.43a9.51,9.51,0,0,0-9.5,9.5v4.28h12.93Z"/><path class="cls-1" d="M79.38,48.89A28.31,28.31,0,1,0,51.07,77.2,28.34,28.34,0,0,0,79.38,48.89Zm-8,9.46H68.24v6.23H64.43V58.35H61.27l5.07-8.77Zm-32.93.29v5.94H34.84V58.64h-3l4.83-8.37,4.84,8.37ZM39.52,49l11.95-20.7,12,20.7H56V63.71H47V49Z"/><path class="cls-1" d="M163,165.22a9.52,9.52,0,0,0,9.5,9.5h8.36a9.52,9.52,0,0,0,9.5-9.5v-21.3H163Z"/><path class="cls-1" d="M0,0V218.22H218.22V0ZM127.22,45.91v86.21a12.73,12.73,0,0,1-25.45,0V86.7a7.73,7.73,0,0,0-15.45,0v95.75a18.8,18.8,0,0,1-37.6,0V82.11a33.36,33.36,0,1,1,5,0V182.45a13.8,13.8,0,0,0,27.6,0V86.7a12.73,12.73,0,0,1,25.45,0v45.42a7.73,7.73,0,0,0,15.45,0V45.91a28.46,28.46,0,1,1,56.92,0v67.3a2.5,2.5,0,0,1-5,0V45.91a23.46,23.46,0,1,0-46.92,0Zm68.1,119.31a14.52,14.52,0,0,1-14.5,14.5h-8.36a14.52,14.52,0,0,1-14.5-14.5V138.14a14.52,14.52,0,0,1,14.5-14.5h8.36a14.52,14.52,0,0,1,14.5,14.5Z"/><path class="cls-1" d="M180.82,128.64h-3.43v13.78h12.93v-4.28A9.51,9.51,0,0,0,180.82,128.64Z"/></g></g></svg>