<svg xmlns="http://www.w3.org/2000/svg" viewBox="0 0 218.22 218.22"><defs><style>.cls-1{fill:#1d1d1b;}</style></defs><title>Asset 10</title><g id="Layer_2" data-name="Layer 2"><g id="Layer_1-2" data-name="Layer 1"><path class="cls-1" d="M0,0V218.22H218.22V0ZM112.53,162.6c-4.14,4.29-8.43,8.41-14,10.94C84.45,180,70.77,179.22,58,170.28A39.37,39.37,0,0,1,44.6,121.74a38.64,38.64,0,0,1,8.1-11.83Q63.26,99.4,73.79,88.82a39.72,39.72,0,0,1,50.5-5c2,1.38,3.9,3,6,4.69l-14.08,14.08c-1.25-.9-2.4-1.84-3.66-2.61a19.75,19.75,0,0,0-24.64,2.88q-10.5,10.47-21,21a19.9,19.9,0,0,0,27.26,29,2.15,2.15,0,0,1,1.68-.53c6.54,2.11,13,4.3,19.56,6.48a5.46,5.46,0,0,1,.59.34C114.82,160.3,113.66,161.43,112.53,162.6Zm57.68-58.74a44.39,44.39,0,0,1-5.06,6.07c-6.82,6.94-13.73,13.8-20.63,20.67a39.67,39.67,0,0,1-50.35,5.3c-2.15-1.4-4.08-3.14-6.28-4.84l13.88-13.88c2.54,1.42,4.86,3.16,7.47,4.1,7.81,2.84,14.94,1.28,20.9-4.5,7.14-6.91,14.09-14,21.11-21.06,7.34-7.37,7.81-18.66,1.13-26.95-6.1-7.56-17.73-9.22-26.14-3.72a6.54,6.54,0,0,0-1.61,1.21c-1.06,1.36-2.21,1.16-3.66.65-5.7-2-11.45-3.85-17.19-5.76l-1.61-.58a11.31,11.31,0,0,1,.83-1c4.11-3.91,7.79-8.29,12.65-11.41a39.79,39.79,0,0,1,54.56,55.66Z"/></g></g></svg>