<svg xmlns="http://www.w3.org/2000/svg" viewBox="0 0 218.22 218.22"><defs><style>.cls-1{fill:#1d1d1b;}</style></defs><title>Asset 3</title><g id="Layer_2" data-name="Layer 2"><g id="Layer_1-2" data-name="Layer 1"><path class="cls-1" d="M170.32,156a4.22,4.22,0,1,0,4.2,4.22A4.16,4.16,0,0,0,170.32,156Z"/><path class="cls-1" d="M0,0V218.22H218.22V0ZM86.41,148.74c-2.54,8.78-10.26,19.22-20.83,22.57-8.52,2.7-22.43,3-31.52-1.13,7.31-5.49,12.59-11.43,15-20.1,1.84-6.62,5.59-12.72,10-18.14a16.66,16.66,0,0,1,12.39-6c1.06-.07,2.13.07,3.7.13,5.2,3.05,10.72,6.67,12.08,12.92C86.91,142.77,87.23,145.91,86.41,148.74ZM180.13,162a10.79,10.79,0,0,1-9,7.67A11.1,11.1,0,0,1,161,166.19c-8.28-8.28-31.35-31.06-50.48-50-3,3.84-6.08,7.5-10.52,10-2.91,1.61-5.61,3.6-9,5.77-2.64-5.39-6.81-8.41-11.71-11.33,5.06-6.52,7.6-14.32,13.48-20.46l.72-.73C90,95.84,87,92.88,84.91,90.81q-7.74-7.74-15.48-15.5a1.61,1.61,0,0,0-1.82-.48A24,24,0,0,1,37.85,46.14a9.08,9.08,0,0,1,.34-.9c1.91,1.95,3.64,3.75,5.4,5.52,2.5,2.52,5,5,7.52,7.54a1.24,1.24,0,0,0,1.39.37q5.64-1.56,11.29-3a1.64,1.64,0,0,0,1.36-1.33c1-3.83,2-7.64,3.06-11.45a1.18,1.18,0,0,0-.4-1.3Q61.69,35.47,55.6,29.36c-.22-.22-.41-.45-.69-.76a20.12,20.12,0,0,1,6.58-.89A23.42,23.42,0,0,1,81.12,38.26a23.16,23.16,0,0,1,3.95,15.83,20.41,20.41,0,0,1-.5,3,1.63,1.63,0,0,0,.52,1.76c5.52,5.48,11,11,16.5,16.46q4,4,8,8C121.23,71.76,133.16,60.5,145,49.17c7.06-6.76,14.83-12.8,22.38-19,.55-.46,1.91.06,3.14.14-5.18,10.06-11.4,18.69-17.09,27.61-3.48,5.46-7.05,11-10.95,16.19S135.11,84.88,131,89.88c-2.28,2.79-3.65,6.11-6.1,8.75l3.64,3.64c4.05,4,45,44.19,49,48.3A10.77,10.77,0,0,1,180.13,162Z"/></g></g></svg>