<svg xmlns="http://www.w3.org/2000/svg" viewBox="0 0 218.22 218.22"><defs><style>.cls-1{fill:#1d1d1b;}</style></defs><title>Asset 4</title><g id="Layer_2" data-name="Layer 2"><g id="Layer_1-2" data-name="Layer 1"><path class="cls-1" d="M103.39,94.75h-.09a2.54,2.54,0,0,1-1.81-.77L79.64,71.16l-14.23,17a2.5,2.5,0,0,1-3.53.31L55,82.65A44.35,44.35,0,1,0,135.63,61.4c-.5-.73-1-1.44-1.57-2.13L105.22,93.85A2.48,2.48,0,0,1,103.39,94.75Z"/><path class="cls-1" d="M57.6,78.35l5.59,4.7L77.6,65.81a2.49,2.49,0,0,1,3.72-.13L103.17,88.5l27.55-33A44.33,44.33,0,0,0,55.66,77.79,2.49,2.49,0,0,1,57.6,78.35Z"/><path class="cls-1" d="M0,0V218.22H218.22V0ZM163.94,180.57a9.73,9.73,0,0,1-13.53-2.48l-28.1-40.75-.23-.27A55.46,55.46,0,1,1,137.86,46.9l8.73-10.46L135.77,34.6l28-14.86L154.19,50l-3.76-10.32-9.12,10.94c1.21,1.43,2.37,2.94,3.46,4.52A55.48,55.48,0,0,1,138.13,126l.2.29L166.43,167A9.72,9.72,0,0,1,163.94,180.57Z"/></g></g></svg>