<svg xmlns="http://www.w3.org/2000/svg" viewBox="0 0 218.22 218.22"><defs><style>.cls-1{fill:#1d1d1b;}</style></defs><title>Asset 6</title><g id="Layer_2" data-name="Layer 2"><g id="Layer_1-2" data-name="Layer 1"><rect class="cls-1" x="157.61" y="50.29" width="4.99" height="4.99" rx="0.67"/><path class="cls-1" d="M28.56,144.17H196.1V65.63H28.56Zm151.06-43.38a.75.75,0,0,1,1.1-1l4.87,5.31a.76.76,0,0,1,0,1L180.7,111a.75.75,0,0,1-1.06,0,.75.75,0,0,1,0-1.06l4.36-4.36ZM129.2,130.36a3.39,3.39,0,1,1-3.39,3.39A3.4,3.4,0,0,1,129.2,130.36Zm-11,0a3.39,3.39,0,1,1-3.39,3.39A3.39,3.39,0,0,1,118.17,130.36Zm-11.77,0a3.39,3.39,0,1,1-3.39,3.39A3.39,3.39,0,0,1,106.4,130.36Zm-11,0a3.39,3.39,0,1,1-3.4,3.39A3.4,3.4,0,0,1,95.37,130.36Z"/><rect class="cls-1" x="40.05" y="50.29" width="20.15" height="4.99" rx="0.67"/><path class="cls-1" d="M95.37,135.64a1.89,1.89,0,1,0-1.9-1.89A1.89,1.89,0,0,0,95.37,135.64Z"/><path class="cls-1" d="M20.34,155.68a5.18,5.18,0,0,0,5.17,5.17H199.59a5.17,5.17,0,0,0,5.16-5.17v-10H20.34Z"/><path class="cls-1" d="M129.2,135.64a1.89,1.89,0,1,0-1.89-1.89A1.9,1.9,0,0,0,129.2,135.64Z"/><path class="cls-1" d="M118.17,135.64a1.89,1.89,0,1,0-1.89-1.89A1.89,1.89,0,0,0,118.17,135.64Z"/><path class="cls-1" d="M106.4,135.64a1.89,1.89,0,1,0-1.89-1.89A1.89,1.89,0,0,0,106.4,135.64Z"/><path class="cls-1" d="M0,0V218.22H218.22V0ZM205.75,145.47v10.21a6.17,6.17,0,0,1-6.16,6.17H132c1,3.07,7.07,19.24,18.17,19.24v6.41H75.33v-6.41c11.09,0,17.12-16.17,18.16-19.24h-68a6.18,6.18,0,0,1-6.17-6.17V145.47a.73.73,0,0,1,0-1.1V39.48a6.18,6.18,0,0,1,6.17-6.17H199.59a6.17,6.17,0,0,1,6.16,6.17V144.37a.73.73,0,0,1,0,1.1Z"/><rect class="cls-1" x="182.89" y="50.29" width="4.99" height="4.99" rx="0.67"/><path class="cls-1" d="M196.1,42.62H28.56V64.13H196.1Zm-134.4,12a2.17,2.17,0,0,1-2.17,2.17H40.72a2.17,2.17,0,0,1-2.17-2.17V51a2.17,2.17,0,0,1,2.17-2.16H59.53A2.17,2.17,0,0,1,61.7,51Zm28.36-1.08H76.34a.75.75,0,0,1,0-1.5H90.06a.75.75,0,0,1,0,1.5Zm19,0H95.29a.75.75,0,1,1,0-1.5H109a.75.75,0,1,1,0,1.5Zm19.52,0H114.81a.75.75,0,0,1,0-1.5h13.72a.75.75,0,0,1,0,1.5Zm18.95,0H133.76a.75.75,0,0,1,0-1.5h13.72a.75.75,0,0,1,0,1.5Zm16.62,1.08a2.17,2.17,0,0,1-2.17,2.17h-3.66a2.17,2.17,0,0,1-2.16-2.17V51a2.16,2.16,0,0,1,2.16-2.16h3.66A2.17,2.17,0,0,1,164.1,51Zm12.68,0a2.17,2.17,0,0,1-2.17,2.17H171a2.17,2.17,0,0,1-2.17-2.17V51A2.17,2.17,0,0,1,171,48.79h3.66A2.17,2.17,0,0,1,176.78,51Zm12.6,0a2.17,2.17,0,0,1-2.16,2.17h-3.66a2.17,2.17,0,0,1-2.17-2.17V51a2.17,2.17,0,0,1,2.17-2.16h3.66A2.16,2.16,0,0,1,189.38,51Z"/><rect class="cls-1" x="170.28" y="50.29" width="4.99" height="4.99" rx="0.67"/><path class="cls-1" d="M199.59,34.31H25.51a5.18,5.18,0,0,0-5.17,5.17V144.17h6.72V41.87a.75.75,0,0,1,.75-.75h169a.76.76,0,0,1,.75.75v102.3h7.15V39.48A5.17,5.17,0,0,0,199.59,34.31Z"/></g></g></svg>