<svg xmlns="http://www.w3.org/2000/svg" viewBox="0 0 218.22 218.22"><defs><style>.cls-1{fill:#1d1d1b;}</style></defs><title>Asset 11</title><g id="Layer_2" data-name="Layer 2"><g id="Layer_1-2" data-name="Layer 1"><path class="cls-1" d="M0,0V218.22H218.22V0ZM199.34,161.89a3.73,3.73,0,0,1-3.55,3.89H60L34.42,191.17a.21.21,0,0,1-.35-.18V165.78H24.41a3.73,3.73,0,0,1-3.55-3.89V38.55a3.72,3.72,0,0,1,3.55-3.88H195.79a3.72,3.72,0,0,1,3.55,3.88Z"/><path class="cls-1" d="M174.29,130a54.67,54.67,0,0,0-1.38-8.77c-2.84-10.25-8.63-18.15-18.64-22.52a6.59,6.59,0,0,1-.69-.48,19.25,19.25,0,0,0,7.91-8.48A18,18,0,0,0,163,78.24a18.69,18.69,0,0,0-32.5-8.62c-6.12,6.85-7.27,21,5.14,28.69a10.75,10.75,0,0,1-1,.54,30.65,30.65,0,0,0-14.27,12.74,49.52,49.52,0,0,0-15.07-10,8.13,8.13,0,0,1-1.08-.76,30.32,30.32,0,0,0,12.41-13.3,28.3,28.3,0,0,0,2.29-18A29.31,29.31,0,0,0,68,55.94c-9.59,10.75-11.4,33,8.07,45-.55.31-1,.62-1.51.84-10.45,4.46-18,12.07-23.49,21.83-4.79,8.47-7,17.68-7.62,27.32-.15,2.28.18,2.62,2.72,2.62h87.77c2.78,0,3.12-.14,2.81-2.93a87.8,87.8,0,0,0-2.16-13.76c-.48-1.71-1-3.37-1.6-5H172.5C174.27,131.86,174.49,131.77,174.29,130Z"/></g></g></svg>