<svg xmlns="http://www.w3.org/2000/svg" viewBox="0 0 218.22 218.22"><defs><style>.cls-1{fill:#1d1d1b;}</style></defs><title>Asset 1</title><g id="Layer_2" data-name="Layer 2"><g id="Layer_1-2" data-name="Layer 1"><path class="cls-1" d="M0,0V218.22H218.22V0ZM77.77,134a5.94,5.94,0,1,1-7.28,9.39L32.92,114.21a5.94,5.94,0,0,1,.2-9.54L70.69,77.94a5.94,5.94,0,0,1,6.89,9.69L46.52,109.72Zm26.85,26.74c-4.69,3.52-13.24,6.72-19.77,6.13,3.34-5,5.32-9.81,4.93-15.7A34,34,0,0,1,92,137.74a10.93,10.93,0,0,1,6.37-6.4c.65-.27,1.34-.42,2.32-.72,3.89.76,8.09,1.8,10.29,5.38.66,2.39,1.54,4.28,1.65,6.2C113,148.19,110.44,156.33,104.62,160.71Zm29.82-89.34c-1,4.14-2,8.32-3.27,12.41s-2.23,8.3-3.68,12.28c-.86,2.37-.94,4.9-2.07,7.18-1,2.05-1.44,4.39-2.39,6.47-2.34,5.16-2.89,11.1-6.86,15.56-1.46,1.63-2.7,3.44-4.29,5.51-2.81-2.76-6-3.73-9.72-4.47,1.72-5.14,1.6-10.53,3.91-15.6,6.62-14.54,14-28.68,21.25-42.91,2.91-5.72,6.41-11.14,9.73-16.65.25-.4,1.2-.38,2-.6C138,57.91,136,64.61,134.44,71.37Zm54.67,45.41-37.57,26.73a5.94,5.94,0,1,1-6.89-9.69l31-22.09L144.45,87.48a5.94,5.94,0,0,1,7.28-9.39l37.57,29.16a5.94,5.94,0,0,1-.19,9.53Z"/></g></g></svg>