<svg xmlns="http://www.w3.org/2000/svg" viewBox="0 0 218.22 218.22"><defs><style>.cls-1{fill:#1d1d1b;}</style></defs><title>Asset 2</title><g id="Layer_2" data-name="Layer 2"><g id="Layer_1-2" data-name="Layer 1"><path class="cls-1" d="M0,0V218.22H218.22V0ZM46.28,66.52a2.51,2.51,0,0,1,3.54.16l6.88,7.54L79.88,54.61a2.51,2.51,0,0,1,3.39.14L108.1,79.64l42.6-51.95-10.83-1.76,27.88-15.09-9.34,30.3-3.84-10.28L110.21,84.94a2.46,2.46,0,0,1-1.81.91h-.12a2.52,2.52,0,0,1-1.77-.74L81.35,59.91,58.09,79.59a2.5,2.5,0,0,1-3.46-.22l-8.51-9.32A2.5,2.5,0,0,1,46.28,66.52Zm19.9,106.85H46.26V112.48H66.18Zm26.88,0H73.15V84.14H93.06Zm27.7,0H100.85V107.52h19.91Zm25.79,0H126.64V77.73h19.91Zm26.57,0H153.2V60.25h19.92Z"/></g></g></svg>