<svg xmlns="http://www.w3.org/2000/svg" viewBox="0 0 218.22 218.22"><defs><style>.cls-1{fill:#1d1d1b;}</style></defs><title>Asset 8</title><g id="Layer_2" data-name="Layer 2"><g id="Layer_1-2" data-name="Layer 1"><path class="cls-1" d="M0,0V218.22H218.22V0ZM150.44,152.94a5,5,0,0,1-5,5H49.91L32.43,173.83a2.65,2.65,0,0,1-4.43-2V158H23.64a5,5,0,0,1-5-5V72.74a5,5,0,0,1,5-5H70.87v66.87a5,5,0,0,0,5,5h74.54ZM96.3,118.55V88.86a3.83,3.83,0,0,1,5.75-3.32l25.71,14.84a3.84,3.84,0,0,1,0,6.64l-25.71,14.85a3.8,3.8,0,0,1-3.84,0A3.8,3.8,0,0,1,96.3,118.55ZM202.74,134.7a5,5,0,0,1-5,5H150.48V72.85a5,5,0,0,0-5-5H70.91V54.5a5,5,0,0,1,5-5h95.51l17.48-15.86a2.65,2.65,0,0,1,4.43,2V49.47h4.36a5,5,0,0,1,5,5Z"/></g></g></svg>